<svg xmlns="http://www.w3.org/2000/svg" width="160.358" height="120.269" viewBox="0 0 160.358 120.269">
  <path id="Icon_simple-adobecreativecloud" data-name="Icon simple-adobecreativecloud" d="M160.358,61.955V67.32c-.053.294-.114.581-.147.869-.267,2.339-.448,4.684-.829,7A57.883,57.883,0,0,1,151.525,96.2a59.119,59.119,0,0,1-24.354,22.45,56.272,56.272,0,0,1-18.789,5.633c-1.45.174-2.907.327-4.356.488H47.693c-.287-.053-.568-.134-.855-.16a47.386,47.386,0,0,1-16.357-4A50.266,50.266,0,0,1,5.152,96.131,48.762,48.762,0,0,1,.474,80.3L0,76.274V71.062a7.621,7.621,0,0,0,.154-.869,48.682,48.682,0,0,1,3.08-14.532A50.477,50.477,0,0,1,28.21,27.739a48.288,48.288,0,0,1,19.564-5.145,53.44,53.44,0,0,1,10.042.474,1.256,1.256,0,0,0,.949-.314A59.453,59.453,0,0,1,75.188,10.66,56.747,56.747,0,0,1,94.063,4.994c1.563-.18,3.12-.334,4.677-.494h4.811c.307.047.628.107.935.14,2.385.287,4.777.468,7.136.869a55.925,55.925,0,0,1,20.533,7.924,59.4,59.4,0,0,1,22.176,24.809,58.531,58.531,0,0,1,5.546,19.123c.174,1.53.321,3.06.481,4.59M70.691,27.211c.1.134.127.194.167.214a64.356,64.356,0,0,1,9.421,5.793.992.992,0,0,0,.882-.067,36.6,36.6,0,0,1,49.223,8.619,36.029,36.029,0,0,1,7.256,29,37.517,37.517,0,0,1-8.887,19.116c-8.82,9.889-19.864,13.978-32.86,12.247a34.508,34.508,0,0,1-20.619-10.45c-7.336-7.537-14.726-15.02-22.083-22.537a5.955,5.955,0,0,0-3.481-1.984,5.519,5.519,0,0,0-5.773,3.207A5.243,5.243,0,0,0,45.174,76.7c8.2,8.192,16.33,16.45,24.521,24.655a40.257,40.257,0,0,0,4.5,3.889,42.654,42.654,0,0,0,20.045,7.844,47.564,47.564,0,0,0,43.8-17.365A48.194,48.194,0,0,0,148.572,71.2a48.863,48.863,0,0,0-.434-15.769A47.209,47.209,0,0,0,137.313,32.87C126.5,20.536,112.905,15.03,96.729,16.253a44.526,44.526,0,0,0-17.646,5.278A46.517,46.517,0,0,0,70.7,27.211m-3.962,86.132q-.335-.313-.668-.628c-3.348-3.221-6.722-6.414-10.036-9.682a2.693,2.693,0,0,0-2.138-.915,40.047,40.047,0,0,1-10.022-.668C27.428,97.675,17.88,79.494,23.94,63.5,28.717,50.877,41.954,43.2,55,45.565a27.042,27.042,0,0,1,15.194,8c5.145,5.4,10.437,10.637,15.635,15.976a4.627,4.627,0,0,0,4.176,1.537,5.262,5.262,0,0,0,4.564-3.448,5.159,5.159,0,0,0-1.156-5.639c-5.452-5.613-10.777-11.372-16.45-16.751-11-10.43-23.974-13.537-38.326-9.1C19.343,42.1,8.045,62.369,12.454,82.367A39.016,39.016,0,0,0,50.479,113.39H65.84c.254,0,.508-.027.9-.047" transform="translate(0 -4.5)" fill="#0e7f7f"/>
</svg>
