<svg xmlns="http://www.w3.org/2000/svg" width="129.626" height="151.174" viewBox="0 0 129.626 151.174">
  <path id="Icon_awesome-android" data-name="Icon awesome-android" d="M21.694,60.5V99.59a9.25,9.25,0,0,1-9.283,9.351c-5.165,0-10.161-4.186-10.161-9.351V60.5c0-5.1,5-9.283,10.161-9.283A9.321,9.321,0,0,1,21.694,60.5Zm3.646,53a9.969,9.969,0,0,0,9.992,9.992h6.718l.1,20.625c0,12.456,18.634,12.355,18.634,0V123.489H73.342v20.625c0,12.389,18.735,12.422,18.735,0V123.489H98.9a9.955,9.955,0,0,0,9.924-9.992V52.938H25.34Zm83.717-63.834H24.968c0-14.448,8.642-27.005,21.469-33.554L39.99,4.193A1.3,1.3,0,1,1,42.252,2.91L48.8,14.928a45.607,45.607,0,0,1,36.559,0L91.874,2.944a1.3,1.3,0,1,1,2.262,1.283L87.688,16.109c12.726,6.549,21.368,19.106,21.368,33.554ZM51.434,30.928a3.544,3.544,0,0,0-3.544-3.544,3.546,3.546,0,0,0,0,7.089A3.544,3.544,0,0,0,51.434,30.928Zm38.28,0a3.494,3.494,0,1,0-3.443,3.544A3.524,3.524,0,0,0,89.714,30.928Zm32,20.288a9.256,9.256,0,0,0-9.283,9.283V99.59a9.314,9.314,0,0,0,9.283,9.351c5.2,0,10.161-4.186,10.161-9.351V60.5C131.876,55.3,126.88,51.216,121.715,51.216Z" transform="translate(-2.25 -2.245)" fill="#0e7f7f"/>
</svg>
