<svg id="Icon_zocial-email" data-name="Icon zocial-email" xmlns="http://www.w3.org/2000/svg" width="81.578" height="55.067" viewBox="0 0 81.578 55.067">
  <path id="Icon_zocial-email-2" data-name="Icon zocial-email" d="M.072,54.257V8.945q0-.079.236-1.495L26.976,30.264.387,55.831a6.667,6.667,0,0,1-.315-1.573ZM3.612,4.3a3.39,3.39,0,0,1,1.337-.236H76.772a4.454,4.454,0,0,1,1.416.236L51.441,27.2,47.9,30.028l-7,5.743-7-5.743L30.359,27.2ZM3.691,58.9,30.516,33.175,40.9,41.592l10.384-8.417L78.11,58.9a3.777,3.777,0,0,1-1.337.236H4.949A3.563,3.563,0,0,1,3.691,58.9ZM54.824,30.264,81.414,7.451a4.7,4.7,0,0,1,.236,1.495V54.257a6.029,6.029,0,0,1-.236,1.573Z" transform="translate(-0.072 -4.068)" fill="#0e7f7f"/>
</svg>
