<svg xmlns="http://www.w3.org/2000/svg" width="131.466" height="128.182" viewBox="0 0 131.466 128.182">
  <path id="Icon_awesome-github" data-name="Icon awesome-github" d="M43.972,103.774c0,.53-.61.954-1.378.954-.875.08-1.484-.345-1.484-.954,0-.53.61-.954,1.378-.954C43.283,102.74,43.972,103.165,43.972,103.774Zm-8.243-1.193c-.186.53.345,1.14,1.14,1.3a1.243,1.243,0,0,0,1.643-.53c.159-.53-.345-1.14-1.14-1.378A1.36,1.36,0,0,0,35.729,102.581Zm11.715-.451c-.769.186-1.3.689-1.219,1.3.08.53.769.875,1.564.689.769-.186,1.3-.689,1.219-1.219C48.929,102.4,48.213,102.051,47.445,102.131ZM64.885.563C28.122.563,0,28.473,0,65.235c0,29.394,18.5,54.548,44.926,63.4,3.393.61,4.585-1.484,4.585-3.207,0-1.643-.08-10.708-.08-16.274,0,0-18.554,3.976-22.45-7.9,0,0-3.022-7.713-7.368-9.7,0,0-6.07-4.161.424-4.082a13.991,13.991,0,0,1,10.231,6.838c5.8,10.231,15.532,7.289,19.322,5.54a14.731,14.731,0,0,1,4.241-8.932c-14.816-1.643-29.765-3.79-29.765-29.288,0-7.289,2.014-10.947,6.255-15.612-.689-1.723-2.942-8.826.689-18C36.551,26.3,49.3,35.178,49.3,35.178a62.616,62.616,0,0,1,33.291,0s12.749-8.906,18.289-7.156c3.631,9.2,1.378,16.274.689,18,4.241,4.691,6.838,8.349,6.838,15.612,0,25.578-15.612,27.619-30.428,29.288,2.438,2.094,4.506,6.07,4.506,12.3,0,8.932-.08,19.985-.08,22.158,0,1.723,1.219,3.817,4.585,3.207,26.505-8.8,44.476-33.953,44.476-63.348C131.466,28.473,101.648.563,64.885.563ZM25.763,91.979c-.345.265-.265.875.186,1.378.424.424,1.034.61,1.378.265.345-.265.265-.875-.186-1.378C26.717,91.82,26.108,91.635,25.763,91.979ZM22.9,89.832c-.186.345.08.769.61,1.034a.789.789,0,0,0,1.14-.186c.186-.345-.08-.769-.61-1.034C23.51,89.488,23.086,89.567,22.9,89.832Zm8.588,9.436c-.424.345-.265,1.14.345,1.643.61.61,1.378.689,1.723.265.345-.345.186-1.14-.345-1.643C32.628,98.924,31.833,98.844,31.488,99.268Zm-3.022-3.9c-.424.265-.424.954,0,1.564s1.14.875,1.484.61a1.209,1.209,0,0,0,0-1.643C29.58,95.292,28.891,95.027,28.467,95.372Z" transform="translate(0 -0.563)" fill="#0e7f7f"/>
</svg>
