<svg xmlns="http://www.w3.org/2000/svg" width="141.578" height="192.032" viewBox="0 0 141.578 192.032">
  <path id="Icon_awesome-java" data-name="Icon awesome-java" d="M103.268,117.355a60.629,60.629,0,0,1,8.776-4.688s-14.515,2.625-28.954,3.826c-17.665,1.463-36.643,1.763-46.17.488-22.541-3,12.377-11.289,12.377-11.289s-13.54-.9-30.23,7.126C-.623,122.344,67.825,126.694,103.268,117.355Zm-32.03-12.039c-7.126-16.015-31.167-30.08,0-54.683C110.116,19.953,90.178,0,90.178,0c8.064,31.692-28.354,41.294-41.519,60.984C39.7,74.449,53.047,88.889,71.238,105.316Zm42.982-66.085c.038,0-65.71,16.428-34.318,52.583,9.264,10.652-2.438,20.253-2.438,20.253S100.98,99.915,90.178,84.725C80.089,70.548,72.363,63.5,114.219,39.231Zm-2.288,101.453a4.572,4.572,0,0,1-.75.975c48.12-12.639,30.417-44.594,7.426-36.493a6.5,6.5,0,0,0-3.075,2.363,26.423,26.423,0,0,1,4.126-1.125C131.284,103.966,147.974,121.969,111.931,140.684Zm17.688,23.366s5.438,4.463-5.963,7.951c-21.716,6.564-90.314,8.551-109.367.263-6.864-2.963,6-7.126,10.052-7.989a27.209,27.209,0,0,1,6.639-.75c-7.614-5.363-49.245,10.539-21.153,15.077C86.428,191.054,149.5,173.014,129.619,164.05ZM45.771,148.523c-29.517,8.251,17.965,25.279,55.546,9.189a69.721,69.721,0,0,1-10.577-5.176c-16.765,3.188-24.529,3.413-39.756,1.688C38.42,152.8,45.771,148.523,45.771,148.523Zm67.435,36.456c-29.517,5.551-65.935,4.913-87.5,1.35,0-.038,4.426,3.638,27.154,5.1,34.58,2.213,87.688-1.238,88.926-17.59,0,0-2.4,6.188-28.579,11.139ZM96.854,132.4c-22.2,4.276-35.068,4.163-51.308,2.475-12.564-1.313-4.351-7.389-4.351-7.389-32.555,10.8,18.078,23.029,63.572,9.714a22.642,22.642,0,0,1-7.914-4.8Z" transform="translate(-0.208)" fill="#0e7f7f"/>
</svg>
