<svg xmlns="http://www.w3.org/2000/svg" width="128.182" height="128.182" viewBox="0 0 128.182 128.182">
  <path id="Icon_simple-javascript" data-name="Icon simple-javascript" d="M0,0H128.182V128.182H0ZM117.682,97.61c-.935-5.848-4.743-10.762-16.039-15.344-3.931-1.843-8.3-3.124-9.6-6.089a6.307,6.307,0,0,1-.246-3.765c.8-3.45,4.887-4.486,8.091-3.525a8.689,8.689,0,0,1,5.213,4.807c5.522-3.61,5.522-3.61,9.373-6.009a22.044,22.044,0,0,0-3.13-4.166C107.982,59.754,103.5,57.831,96.211,58l-3.765.475a17.217,17.217,0,0,0-9.133,5.368c-6.089,6.9-4.331,18.912,3.039,23.879,7.29,5.448,17.951,6.644,19.313,11.777,1.282,6.249-4.647,8.252-10.5,7.531-4.331-.961-6.73-3.13-9.373-7.135L76.017,105.5c1.122,2.564,2.4,3.68,4.326,5.923,9.293,9.379,32.526,8.9,36.7-5.362a18.077,18.077,0,0,0,.4-8.812l.246.358ZM69.7,58.916H57.7c0,10.351-.048,20.637-.048,31,0,6.58.336,12.621-.737,14.479-1.763,3.68-6.3,3.21-8.364,2.564-2.115-1.047-3.189-2.489-4.433-4.566a4.582,4.582,0,0,0-.678-1.047l-9.747,6.009a18.891,18.891,0,0,0,7.071,8.1c4.566,2.724,10.7,3.605,17.128,2.163,4.182-1.207,7.787-3.691,9.672-7.536,2.724-4.967,2.147-11.056,2.12-17.871.064-10.97,0-21.946,0-33l.021-.3Z" fill="#0e7f7f"/>
</svg>
