<svg id="Icon_awesome-linkedin" data-name="Icon awesome-linkedin" xmlns="http://www.w3.org/2000/svg" width="57.8" height="57.8" viewBox="0 0 57.8 57.8">
  <path id="Icon_awesome-linkedin-2" data-name="Icon awesome-linkedin" d="M53.672,2.25H4.116A4.146,4.146,0,0,0,0,6.417V55.883A4.146,4.146,0,0,0,4.116,60.05H53.672A4.157,4.157,0,0,0,57.8,55.883V6.417A4.157,4.157,0,0,0,53.672,2.25Zm-36.2,49.543H8.9V24.209h8.58V51.793ZM13.186,20.442a4.967,4.967,0,1,1,4.967-4.967,4.969,4.969,0,0,1-4.967,4.967Zm36.4,31.351H41.015V38.375c0-3.2-.065-7.315-4.451-7.315-4.464,0-5.148,3.483-5.148,7.083v13.65H22.849V24.209h8.218v3.767h.116A9.023,9.023,0,0,1,39.3,23.525c8.67,0,10.283,5.716,10.283,13.147Z" transform="translate(0 -2.25)" fill="#0e7f7f"/>
</svg>
