<svg xmlns="http://www.w3.org/2000/svg" width="124.776" height="124.125" viewBox="0 0 124.776 124.125">
  <path id="Icon_simple-visualstudiocode" data-name="Icon simple-visualstudiocode" d="M120.356,13.22,94.673.862A7.767,7.767,0,0,0,85.809,2.37L36.628,47.237,15.208,30.974a5.194,5.194,0,0,0-6.634.3L1.7,37.52A5.2,5.2,0,0,0,1.7,45.209L20.272,62.158,1.7,79.106A5.2,5.2,0,0,0,1.7,86.8l6.878,6.244a5.194,5.194,0,0,0,6.634.3L36.633,77.073,85.814,121.94a7.757,7.757,0,0,0,8.859,1.508l25.693-12.358a7.8,7.8,0,0,0,4.409-7.029V20.249a7.8,7.8,0,0,0-4.42-7.029ZM93.6,90.481,56.285,62.158,93.6,33.834Z" transform="translate(0.001 -0.093)" fill="#0e7f7f"/>
</svg>
